<svg width="48" height="48" viewBox="0 0 48 48" fill="none" xmlns="http://www.w3.org/2000/svg">
<path opacity="0.1" d="M48 24C48 10.7452 37.2548 0 24 0C10.7452 0 0 10.7452 0 24C0 37.2548 10.7452 48 24 48C37.2548 48 48 37.2548 48 24Z" fill="white"/>
<path d="M30.25 18.6836C30.25 18.4922 30.168 18.3281 30.0312 18.1914C29.8945 18.082 29.7305 18 29.5664 18H18.6836C18.4648 18 18.3008 18.082 18.1914 18.1914C18.0547 18.3281 18 18.4922 18 18.6836V29.5664C18 29.7578 18.0547 29.9219 18.1914 30.0586C18.3008 30.1953 18.4648 30.25 18.6836 30.25H24.5352V25.4922H22.9492V23.6602H24.5352V22.293C24.5352 21.5273 24.7539 20.9258 25.1914 20.4883C25.6289 20.0781 26.2031 19.8594 26.9141 19.8594C27.4609 19.8594 27.9531 19.8867 28.3359 19.9141V21.582H27.3516C26.9961 21.582 26.75 21.6641 26.6133 21.8281C26.5039 21.9648 26.4492 22.1836 26.4492 22.4844V23.6602H28.2812L28.0352 25.4922H26.4492V30.25H29.5664C29.7578 30.25 29.9219 30.1953 30.0586 30.0586C30.168 29.9219 30.25 29.7578 30.25 29.5664V18.6836Z" fill="white"/>
</svg>
