<svg width="48" height="48" viewBox="0 0 48 48" fill="none" xmlns="http://www.w3.org/2000/svg">
<path opacity="0.1" d="M48 24C48 10.7452 37.2548 0 24 0C10.7452 0 0 10.7452 0 24C0 37.2548 10.7452 48 24 48C37.2548 48 48 37.2548 48 24Z" fill="white"/>
<path d="M21.539 27.6367C21.539 27.6367 21.511 27.6093 21.484 27.582C21.457 27.582 21.429 27.5546 21.375 27.5546C21.265 27.5546 21.238 27.6093 21.238 27.664C21.238 27.746 21.265 27.7734 21.375 27.7734C21.484 27.7734 21.539 27.7187 21.539 27.6367ZM20.691 27.5273C20.691 27.4726 20.746 27.4453 20.855 27.4726C20.937 27.5 20.965 27.5273 20.965 27.582C20.965 27.6367 20.937 27.664 20.91 27.664C20.855 27.6914 20.828 27.6914 20.801 27.664C20.746 27.664 20.719 27.6367 20.691 27.6093C20.664 27.582 20.664 27.5546 20.691 27.5273ZM21.894 27.4726C21.976 27.4726 22.031 27.5 22.031 27.5546C22.031 27.6093 22.004 27.664 21.922 27.6914C21.867 27.6914 21.84 27.6914 21.812 27.6914C21.785 27.6914 21.758 27.6367 21.758 27.582C21.758 27.5273 21.785 27.5 21.894 27.4726ZM23.699 17C24.929 17 26.078 17.3007 27.144 17.875C28.183 18.4765 29.031 19.2695 29.633 20.2539C30.234 21.2929 30.562 22.4414 30.562 23.6718C30.562 25.2031 30.125 26.5429 29.277 27.746C28.429 28.9492 27.336 29.7695 25.969 30.207C25.804 30.2617 25.695 30.2343 25.613 30.1523C25.531 30.0976 25.504 29.9882 25.504 29.8789V27.582C25.504 27.0078 25.34 26.5976 25.039 26.3242C25.695 26.2695 26.215 26.1601 26.543 26.0507C27.035 25.8867 27.445 25.6132 27.719 25.2304C28.019 24.7656 28.183 24.1093 28.183 23.289C28.183 22.9609 28.101 22.6601 27.992 22.3867C27.883 22.2226 27.719 21.9765 27.472 21.7031C27.527 21.539 27.582 21.3203 27.609 21.0468C27.609 20.664 27.554 20.2539 27.418 19.8437C27.226 19.789 26.98 19.8437 26.652 19.9531C26.433 20.0624 26.16 20.1718 25.886 20.3359L25.531 20.582C24.957 20.4179 24.383 20.3359 23.781 20.3359C23.179 20.3359 22.633 20.4179 22.086 20.582L21.73 20.3359C21.429 20.1718 21.156 20.0624 20.937 19.9531C20.609 19.8437 20.363 19.789 20.199 19.8437C20.035 20.2539 19.953 20.664 20.008 21.0468C20.008 21.3203 20.035 21.5117 20.117 21.6757C19.898 21.9492 19.734 22.2226 19.625 22.4414C19.515 22.6601 19.488 22.9609 19.488 23.289C19.488 24.1093 19.625 24.7656 19.926 25.2031C20.172 25.5859 20.554 25.8867 21.074 26.0507C21.402 26.1601 21.894 26.2695 22.551 26.3242C22.304 26.5429 22.168 26.871 22.113 27.2539C21.785 27.4179 21.484 27.4726 21.211 27.4179C20.719 27.3906 20.363 27.1445 20.117 26.6796C20.008 26.4882 19.843 26.3242 19.679 26.1874C19.543 26.1328 19.406 26.0507 19.269 25.996L19.078 25.9687C18.859 25.9687 18.75 26.0234 18.75 26.0781C18.75 26.1328 18.777 26.2148 18.886 26.2695L19.023 26.3789C19.133 26.4609 19.269 26.5703 19.406 26.7343C19.515 26.871 19.597 27.0078 19.679 27.1718L19.789 27.3906C19.871 27.664 20.035 27.8828 20.308 28.0195C20.527 28.1562 20.773 28.2382 21.101 28.2656C21.32 28.2929 21.539 28.2929 21.785 28.2382L22.086 28.2109L22.113 29.8789C22.113 29.9882 22.058 30.0976 21.976 30.1523C21.894 30.2343 21.785 30.2617 21.648 30.207C20.254 29.7695 19.133 28.9492 18.285 27.746C17.41 26.5429 17 25.2031 17 23.6718C17 22.4414 17.273 21.3203 17.875 20.2812C18.449 19.2695 19.242 18.4765 20.281 17.875C21.293 17.3007 22.441 17 23.699 17ZM19.652 26.4335C19.679 26.4062 19.734 26.4062 19.789 26.4609C19.843 26.5156 19.843 26.5703 19.816 26.5976C19.761 26.6523 19.734 26.625 19.679 26.5703C19.625 26.5156 19.597 26.4882 19.652 26.4335ZM19.351 26.2148C19.379 26.1874 19.433 26.1874 19.488 26.2148C19.543 26.2421 19.543 26.2695 19.543 26.3242C19.515 26.3789 19.461 26.3789 19.406 26.3242C19.351 26.2968 19.324 26.2695 19.351 26.2148ZM20.254 27.1718C20.254 27.1718 20.281 27.1718 20.336 27.1718C20.363 27.1718 20.39 27.1992 20.418 27.2265C20.445 27.2539 20.472 27.2812 20.472 27.3085C20.472 27.3632 20.472 27.3906 20.472 27.3906C20.418 27.4453 20.336 27.4453 20.281 27.3632C20.226 27.3359 20.226 27.3085 20.226 27.2539C20.226 27.2265 20.226 27.1992 20.254 27.1718ZM19.926 26.789C19.953 26.789 19.98 26.789 20.008 26.789C20.035 26.789 20.062 26.8164 20.09 26.8437C20.144 26.9257 20.144 26.9804 20.09 27.0078C20.062 27.0351 20.035 27.0351 20.008 27.0078C19.98 27.0078 19.953 26.9804 19.926 26.9531C19.871 26.871 19.871 26.8164 19.926 26.789Z" fill="white"/>
</svg>
