<svg width="48" height="48" viewBox="0 0 48 48" fill="none" xmlns="http://www.w3.org/2000/svg">
<path opacity="0.1" d="M48 24C48 10.7452 37.2548 0 24 0C10.7452 0 0 10.7452 0 24C0 37.2548 10.7452 48 24 48C37.2548 48 48 37.2548 48 24Z" fill="white"/>
<path d="M24.125 20.9805C24.6719 20.9805 25.1914 21.1445 25.6836 21.418C26.1758 21.6914 26.5586 22.0742 26.832 22.5664C27.1055 23.0586 27.2695 23.5781 27.2695 24.125C27.2695 24.6992 27.1055 25.2188 26.832 25.7109C26.5586 26.2031 26.1758 26.5859 25.6836 26.8594C25.1914 27.1328 24.6719 27.2695 24.125 27.2695C23.5508 27.2695 23.0312 27.1328 22.5391 26.8594C22.0469 26.5859 21.6641 26.2031 21.3906 25.7109C21.1172 25.2188 20.9805 24.6992 20.9805 24.125C20.9805 23.5781 21.1172 23.0586 21.3906 22.5664C21.6641 22.0742 22.0469 21.6914 22.5391 21.418C23.0312 21.1445 23.5508 20.9805 24.125 20.9805ZM24.125 26.1758C24.6719 26.1758 25.1641 25.9844 25.5742 25.5742C25.957 25.1914 26.1758 24.6992 26.1758 24.125C26.1758 23.5781 25.957 23.0859 25.5742 22.6758C25.1641 22.293 24.6719 22.0742 24.125 22.0742C23.5508 22.0742 23.0586 22.293 22.6758 22.6758C22.2656 23.0859 22.0742 23.5781 22.0742 24.125C22.0742 24.6992 22.2656 25.1914 22.6758 25.5742C23.0586 25.9844 23.5508 26.1758 24.125 26.1758ZM28.1445 20.8438C28.1445 20.6523 28.0625 20.4883 27.9258 20.3242C27.7617 20.1875 27.5977 20.1055 27.4062 20.1055C27.1875 20.1055 27.0234 20.1875 26.8867 20.3242C26.7227 20.4883 26.668 20.6523 26.668 20.8438C26.668 21.0625 26.7227 21.2266 26.8867 21.3633C27.0234 21.5273 27.1875 21.582 27.4062 21.582C27.5977 21.582 27.7617 21.5273 27.8984 21.3633C28.0352 21.2266 28.1172 21.0625 28.1445 20.8438ZM30.2227 21.582C30.2227 22.1016 30.25 22.9492 30.25 24.125C30.25 25.3281 30.2227 26.1758 30.1953 26.6953C30.168 27.2148 30.0859 27.6523 29.9766 28.0352C29.8125 28.5 29.5391 28.9102 29.2109 29.2383C28.8828 29.5664 28.4727 29.8125 28.0352 29.9766C27.6523 30.1133 27.1875 30.1953 26.668 30.2227C26.1484 30.25 25.3008 30.25 24.125 30.25C22.9219 30.25 22.0742 30.25 21.5547 30.2227C21.0352 30.1953 20.5977 30.1133 20.2148 29.9492C19.75 29.8125 19.3398 29.5664 19.0117 29.2383C18.6836 28.9102 18.4375 28.5 18.2734 28.0352C18.1367 27.6523 18.0547 27.2148 18.0273 26.6953C18 26.1758 18 25.3281 18 24.125C18 22.9492 18 22.1016 18.0273 21.582C18.0547 21.0625 18.1367 20.5977 18.2734 20.2148C18.4375 19.7773 18.6836 19.3672 19.0117 19.0391C19.3398 18.7109 19.75 18.4375 20.2148 18.2734C20.5977 18.1641 21.0352 18.082 21.5547 18.0547C22.0742 18.0273 22.9219 18 24.125 18C25.3008 18 26.1484 18.0273 26.668 18.0547C27.1875 18.082 27.6523 18.1641 28.0352 18.2734C28.4727 18.4375 28.8828 18.7109 29.2109 19.0391C29.5391 19.3672 29.8125 19.7773 29.9766 20.2148C30.0859 20.5977 30.168 21.0625 30.2227 21.582ZM28.9102 27.7344C29.0195 27.4336 29.0742 26.9414 29.1289 26.2578C29.1289 25.875 29.1562 25.3008 29.1562 24.5625V23.6875C29.1562 22.9492 29.1289 22.375 29.1289 21.9922C29.0742 21.3086 29.0195 20.8164 28.9102 20.5156C28.6914 19.9688 28.2812 19.5586 27.7344 19.3398C27.4336 19.2305 26.9414 19.1758 26.2578 19.1211C25.8477 19.1211 25.2734 19.0938 24.5625 19.0938H23.6875C22.9492 19.0938 22.375 19.1211 21.9922 19.1211C21.3086 19.1758 20.8164 19.2305 20.5156 19.3398C19.9414 19.5586 19.5586 19.9688 19.3398 20.5156C19.2305 20.8164 19.1484 21.3086 19.1211 21.9922C19.0938 22.4023 19.0938 22.9766 19.0938 23.6875V24.5625C19.0938 25.3008 19.0938 25.875 19.1211 26.2578C19.1484 26.9414 19.2305 27.4336 19.3398 27.7344C19.5586 28.3086 19.9688 28.6914 20.5156 28.9102C20.8164 29.0195 21.3086 29.1016 21.9922 29.1289C22.375 29.1562 22.9492 29.1562 23.6875 29.1562H24.5625C25.3008 29.1562 25.875 29.1562 26.2578 29.1289C26.9414 29.1016 27.4336 29.0195 27.7344 28.9102C28.2812 28.6914 28.6914 28.2812 28.9102 27.7344Z" fill="white"/>
</svg>
