<svg width="48" height="48" viewBox="0 0 48 48" fill="none" xmlns="http://www.w3.org/2000/svg">
<path opacity="0.1" d="M48 24C48 10.7452 37.2548 0 24 0C10.7452 0 0 10.7452 0 24C0 37.2548 10.7452 48 24 48C37.2548 48 48 37.2548 48 24Z" fill="white"/>
<path d="M24.125 20.9805C24.672 20.9805 25.191 21.1445 25.684 21.418C26.176 21.6914 26.559 22.0742 26.832 22.5664C27.105 23.0586 27.27 23.5781 27.27 24.125C27.27 24.6992 27.105 25.2188 26.832 25.7109C26.559 26.2031 26.176 26.5859 25.684 26.8594C25.191 27.1328 24.672 27.2695 24.125 27.2695C23.551 27.2695 23.031 27.1328 22.539 26.8594C22.047 26.5859 21.664 26.2031 21.391 25.7109C21.117 25.2188 20.98 24.6992 20.98 24.125C20.98 23.5781 21.117 23.0586 21.391 22.5664C21.664 22.0742 22.047 21.6914 22.539 21.418C23.031 21.1445 23.551 20.9805 24.125 20.9805ZM24.125 26.1758C24.672 26.1758 25.164 25.9844 25.574 25.5742C25.957 25.1914 26.176 24.6992 26.176 24.125C26.176 23.5781 25.957 23.0859 25.574 22.6758C25.164 22.293 24.672 22.0742 24.125 22.0742C23.551 22.0742 23.059 22.293 22.676 22.6758C22.266 23.0859 22.074 23.5781 22.074 24.125C22.074 24.6992 22.266 25.1914 22.676 25.5742C23.059 25.9844 23.551 26.1758 24.125 26.1758ZM28.145 20.8438C28.145 20.6523 28.063 20.4883 27.926 20.3242C27.762 20.1875 27.598 20.1055 27.406 20.1055C27.187 20.1055 27.023 20.1875 26.887 20.3242C26.723 20.4883 26.668 20.6523 26.668 20.8438C26.668 21.0625 26.723 21.2266 26.887 21.3633C27.023 21.5273 27.187 21.582 27.406 21.582C27.598 21.582 27.762 21.5273 27.898 21.3633C28.035 21.2266 28.117 21.0625 28.145 20.8438ZM30.223 21.582C30.223 22.1016 30.25 22.9492 30.25 24.125C30.25 25.3281 30.223 26.1758 30.195 26.6953C30.168 27.2148 30.086 27.6523 29.977 28.0352C29.813 28.5 29.539 28.9102 29.211 29.2383C28.883 29.5664 28.473 29.8125 28.035 29.9766C27.652 30.1133 27.187 30.1953 26.668 30.2227C26.148 30.25 25.301 30.25 24.125 30.25C22.922 30.25 22.074 30.25 21.555 30.2227C21.035 30.1953 20.598 30.1133 20.215 29.9492C19.75 29.8125 19.34 29.5664 19.012 29.2383C18.684 28.9102 18.437 28.5 18.273 28.0352C18.137 27.6523 18.055 27.2148 18.027 26.6953C18 26.1758 18 25.3281 18 24.125C18 22.9492 18 22.1016 18.027 21.582C18.055 21.0625 18.137 20.5977 18.273 20.2148C18.437 19.7773 18.684 19.3672 19.012 19.0391C19.34 18.7109 19.75 18.4375 20.215 18.2734C20.598 18.1641 21.035 18.082 21.555 18.0547C22.074 18.0273 22.922 18 24.125 18C25.301 18 26.148 18.0273 26.668 18.0547C27.187 18.082 27.652 18.1641 28.035 18.2734C28.473 18.4375 28.883 18.7109 29.211 19.0391C29.539 19.3672 29.813 19.7773 29.977 20.2148C30.086 20.5977 30.168 21.0625 30.223 21.582ZM28.91 27.7344C29.02 27.4336 29.074 26.9414 29.129 26.2578C29.129 25.875 29.156 25.3008 29.156 24.5625V23.6875C29.156 22.9492 29.129 22.375 29.129 21.9922C29.074 21.3086 29.02 20.8164 28.91 20.5156C28.691 19.9688 28.281 19.5586 27.734 19.3398C27.434 19.2305 26.941 19.1758 26.258 19.1211C25.848 19.1211 25.273 19.0938 24.563 19.0938H23.687C22.949 19.0938 22.375 19.1211 21.992 19.1211C21.309 19.1758 20.816 19.2305 20.516 19.3398C19.941 19.5586 19.559 19.9688 19.34 20.5156C19.23 20.8164 19.148 21.3086 19.121 21.9922C19.094 22.4023 19.094 22.9766 19.094 23.6875V24.5625C19.094 25.3008 19.094 25.875 19.121 26.2578C19.148 26.9414 19.23 27.4336 19.34 27.7344C19.559 28.3086 19.969 28.6914 20.516 28.9102C20.816 29.0195 21.309 29.1016 21.992 29.1289C22.375 29.1562 22.949 29.1562 23.687 29.1562H24.563C25.301 29.1562 25.875 29.1562 26.258 29.1289C26.941 29.1016 27.434 29.0195 27.734 28.9102C28.281 28.6914 28.691 28.2812 28.91 27.7344Z" fill="white"/>
</svg>
