<svg width="48" height="48" viewBox="0 0 48 48" fill="none" xmlns="http://www.w3.org/2000/svg">
<path opacity="0.1" d="M48 24C48 10.7452 37.2548 0 24 0C10.7452 0 0 10.7452 0 24C0 37.2548 10.7452 48 24 48C37.2548 48 48 37.2548 48 24Z" fill="white"/>
<path d="M29.551 20.8437C30.098 20.4336 30.59 19.9414 31 19.3398C30.453 19.5859 29.906 19.75 29.359 19.8047C29.961 19.4219 30.398 18.9023 30.617 18.2187C30.043 18.5469 29.441 18.793 28.785 18.9023C28.512 18.6289 28.184 18.4102 27.828 18.2461C27.473 18.082 27.09 18 26.68 18C26.16 18 25.695 18.1367 25.258 18.3828C24.82 18.6563 24.465 19.0117 24.219 19.4492C23.945 19.8867 23.836 20.3789 23.836 20.8711C23.836 21.0898 23.836 21.3086 23.891 21.5273C22.715 21.4727 21.621 21.1992 20.582 20.6523C19.543 20.1328 18.695 19.4219 17.984 18.5195C17.711 18.9844 17.574 19.4766 17.574 19.9687C17.574 20.4609 17.684 20.9258 17.93 21.3359C18.148 21.7734 18.477 22.1016 18.859 22.375C18.395 22.375 17.957 22.2383 17.574 21.9922V22.0469C17.574 22.7305 17.793 23.332 18.23 23.8516C18.668 24.3984 19.215 24.7266 19.871 24.8633C19.598 24.918 19.352 24.9453 19.105 24.9453C18.941 24.9453 18.75 24.9453 18.586 24.918C18.75 25.4922 19.078 25.957 19.57 26.3398C20.062 26.7227 20.609 26.8867 21.266 26.8867C20.199 27.707 18.996 28.1172 17.684 28.1172C17.41 28.1172 17.191 28.1172 17 28.0898C18.312 28.9648 19.789 29.375 21.402 29.375C23.07 29.375 24.547 28.9648 25.859 28.0898C27.035 27.3242 27.965 26.3125 28.621 25C29.25 23.7969 29.578 22.5117 29.578 21.1992C29.578 21.0352 29.551 20.9258 29.551 20.8437Z" fill="white"/>
</svg>
